<?xml version="1.0" standalone="no"?>
<!DOCTYPE svg PUBLIC "-//W3C//DTD SVG 20010904//EN"
 "http://www.w3.org/TR/2001/REC-SVG-20010904/DTD/svg10.dtd">
<svg version="1.0" xmlns="http://www.w3.org/2000/svg"
 width="521.000000pt" height="236.000000pt" viewBox="0 0 521.000000 236.000000"
 preserveAspectRatio="xMidYMid meet">

<g transform="translate(0.000000,236.000000) scale(0.100000,-0.100000)"
fill="#000000" stroke="none">
<path d="M1357 2323 c-32 -51 -138 -238 -227 -403 -149 -275 -892 -1613 -932
-1678 -23 -37 -58 -103 -80 -147 l-39 -80 683 -3 c375 -1 686 2 690 6 5 5 -5
42 -22 83 -77 184 -107 413 -76 586 74 427 404 743 825 794 107 13 261 3 393
-24 l57 -12 -228 -400 c-125 -220 -295 -517 -376 -660 -82 -143 -162 -285
-177 -315 l-29 -55 812 -3 c447 -1 814 0 817 2 6 6 -76 158 -203 376 -56 96
-193 339 -305 540 -112 201 -222 398 -246 437 -23 40 -39 75 -35 77 4 3 53 14
108 25 346 71 668 -26 899 -272 271 -287 343 -692 193 -1081 -17 -43 -28 -84
-26 -90 5 -13 1377 -23 1377 -9 0 10 -87 169 -258 473 -73 129 -336 602 -585
1050 l-453 815 -89 -2 c-107 -3 -274 -33 -382 -69 -372 -124 -656 -412 -797
-809 -5 -15 -20 9 -60 102 -142 325 -381 564 -690 688 -113 46 -224 72 -361
85 -157 14 -151 15 -178 -27z"/>
</g>
</svg>
